<svg width="23" height="15" viewBox="0 0 23 15" fill="none" xmlns="http://www.w3.org/2000/svg">
<path d="M22.367 7.5843C20.0546 3.41924 15.9994 0.898804 11.5119 0.898804C7.02447 0.898804 2.96241 3.41924 0.67064 7.5843L0.478516 7.89852L0.656917 8.21942C2.96927 12.3845 7.02447 14.9049 11.5119 14.9049C15.9994 14.9049 20.0615 12.4179 22.367 8.21942L22.5454 7.89852L22.367 7.5843ZM11.5119 13.5344C7.64887 13.5344 4.10143 11.4352 2.04296 7.89852C4.10143 4.36189 7.64887 2.26265 11.5119 2.26265C15.375 2.26265 18.8813 4.36858 20.9741 7.89852C18.8813 11.4352 15.3682 13.5344 11.5119 13.5344Z" fill="#272643"/>
<path d="M11.7118 3.3324C10.7814 3.33901 9.87394 3.61411 9.10396 4.12295C8.33398 4.63178 7.73604 5.35153 7.38564 6.19128C7.03525 7.03103 6.94813 7.95313 7.13528 8.84109C7.32244 9.72906 7.77547 10.5431 8.43716 11.1803C9.09886 11.8176 9.93953 12.2495 10.853 12.4215C11.7665 12.5935 12.7118 12.4979 13.5695 12.1467C14.4272 11.7955 15.1589 11.2046 15.6722 10.4485C16.1854 9.69241 16.4572 8.80508 16.4531 7.89859C16.4504 7.29519 16.3255 6.69822 16.0856 6.14192C15.8457 5.58562 15.4955 5.08092 15.0551 4.65673C14.6146 4.23254 14.0926 3.89721 13.5189 3.66996C12.9451 3.44271 12.331 3.32799 11.7118 3.3324V3.3324ZM11.7118 11.1678C11.0546 11.1612 10.4141 10.9656 9.87067 10.6054C9.32725 10.2453 8.90517 9.73676 8.65742 9.14366C8.40968 8.55057 8.34732 7.89937 8.47818 7.27186C8.60904 6.64435 8.92728 6.0685 9.39294 5.61664C9.8586 5.16478 10.4509 4.85706 11.0955 4.73212C11.74 4.60718 12.4081 4.67059 13.0158 4.9144C13.6235 5.15821 14.1437 5.57154 14.5111 6.10247C14.8785 6.6334 15.0767 7.25827 15.0808 7.89859C15.0826 8.32954 14.9966 8.75655 14.8278 9.15487C14.659 9.55319 14.4107 9.91489 14.0973 10.219C13.7839 10.5231 13.4116 10.7636 13.0021 10.9264C12.5927 11.0893 12.154 11.1713 11.7118 11.1678V11.1678Z" fill="#272643"/>
</svg>
